<svg width="100" height="100" viewBox="0 0 100 100" fill="none" xmlns="http://www.w3.org/2000/svg">
<rect width="100" height="100" fill="white"/>
<circle cx="50.2698" cy="50.2698" r="44.7302" fill="#100D0E"/>
<circle cx="50.2697" cy="50.2698" r="38.666" fill="#E3A42E"/>
<circle cx="50.2697" cy="50.2698" r="38.666" fill="#E3A42D"/>
<path d="M80.9975 73.7437L50.4169 59.5551L19.6192 73.8444C26.6889 83.0224 37.7887 88.9359 50.2697 88.9359C62.7963 88.9359 73.9316 82.9791 80.9975 73.7437Z" fill="#100D0E"/>
<path d="M84.5672 32.3993L50.4169 48.2442L16.0297 32.2895C22.5017 19.9903 35.4063 11.6038 50.2697 11.6038C65.1773 11.6038 78.1145 20.0403 84.5672 32.3993Z" fill="#E1392E"/>
<path fill-rule="evenodd" clip-rule="evenodd" d="M56.1094 27.5328L57.0258 28.0634L57.0258 31.4473H56.2238V37.285H44.3158V31.4473H43.6536L43.6536 28.0634L44.4129 27.6238C44.6858 26.1292 45.5167 24.8294 46.682 23.9482C46.7393 23.8357 46.8524 23.7613 46.9742 23.7407C47.9178 23.1124 49.051 22.7462 50.2698 22.7462C53.1585 22.7462 55.5668 24.8035 56.1094 27.5328ZM52.9944 30.4292C53.7573 30.4292 54.3758 29.8107 54.3758 29.0478C54.3758 28.2849 53.7573 27.6664 52.9944 27.6664C52.2315 27.6664 51.613 28.2849 51.613 29.0478C51.613 29.8107 52.2315 30.4292 52.9944 30.4292ZM48.9266 29.0478C48.9266 29.8107 48.3081 30.4292 47.5452 30.4292C46.7822 30.4292 46.1638 29.8107 46.1638 29.0478C46.1638 28.2849 46.7822 27.6664 47.5452 27.6664C48.3081 27.6664 48.9266 28.2849 48.9266 29.0478Z" fill="#100D0E"/>
<path fill-rule="evenodd" clip-rule="evenodd" d="M68.6201 33.1096C68.5868 33.3483 68.5594 33.5493 68.5374 33.7178C68.5174 33.7724 68.4218 34.056 68.4226 34.484C68.4246 35.4717 68.4487 37.2893 68.4736 39.1653V39.1654V39.1655L68.4736 39.1656C68.5014 41.2608 68.5301 43.4287 68.5301 44.5951C68.5301 45.2621 60.964 38.0209 60.964 38.0209H50.2698V38.021H39.5756C39.5756 38.021 32.0095 45.2621 32.0095 44.5951C32.0095 43.4288 32.0382 41.2608 32.066 39.1656L32.066 39.1656L32.066 39.1654L32.066 39.1653C32.0908 37.2893 32.1149 35.4718 32.1169 34.484C32.1178 34.056 32.0222 33.7725 32.0022 33.7178C31.9802 33.5493 31.9528 33.3483 31.9195 33.1096C31.8673 32.7361 31.7921 32.1699 31.7523 31.8514C31.7125 31.5329 31.6533 31.1057 31.6207 30.902C31.5882 30.6983 31.5761 30.5099 31.5938 30.4833C31.6817 30.3519 32.1144 29.8004 32.7793 28.9722C34.0599 27.377 34.7514 26.4995 34.8299 26.3701C34.9505 26.1714 34.9259 26.0843 34.6425 25.7067C34.496 25.5114 34.2896 25.2322 34.1839 25.0862C33.6531 24.3529 32.6965 23.0739 32.6158 22.9894C32.5771 22.9488 32.5103 22.9148 32.4675 22.9136C32.3967 22.9118 29.7316 23.8755 29.2563 24.0748C29.1292 24.1281 29.0398 24.1971 29.0122 24.2634C28.9608 24.3866 29.038 25.0599 29.115 25.1599C29.1737 25.236 29.3468 25.2729 30.1646 25.3837C30.9482 25.4897 31.0453 25.4657 31.5177 25.0491C31.6971 24.8909 31.8626 24.7725 31.8854 24.786C31.9349 24.8152 31.8297 25.1688 31.734 25.2955C31.5459 25.5442 31.6128 25.6642 31.9744 25.7267C32.2503 25.7743 32.354 25.8301 32.2809 25.8917C32.2572 25.9116 31.9234 26.0257 31.5391 26.1453C31.3226 26.2126 31.0789 26.2733 30.8624 26.3271L30.8624 26.3271C30.562 26.4019 30.3141 26.4636 30.2644 26.5119C30.2333 26.4824 30.0988 26.4806 29.8273 26.506C29.5101 26.5357 29.3198 26.5857 28.8321 26.7677C27.8699 27.1268 27.8437 27.1411 27.3236 27.5964C27.0025 27.8774 26.8046 28.0215 26.7419 28.0199C26.639 28.0172 26.4592 27.9038 25.6362 27.3218C25.3413 27.1132 25.0821 26.942 25.0602 26.9415C24.9722 26.9392 24.974 27.0798 25.0699 27.6848C25.3046 29.1653 25.6038 29.8907 26.2623 30.5752L26.5648 30.8897L26.4943 32.61C26.4678 33.2554 26.4522 33.6615 26.4475 33.9197L24.9142 50.9575L26.4666 54.2348L30.9512 53.3723L38.3682 48.5427L36.9883 73.0359H40.783V82.5227L48.0275 84.5925L49.2349 73.0359L50.2698 70.7935L51.3047 73.0358L52.5121 84.5925L59.7566 82.5227V73.0358H63.5513L62.1714 48.5427L69.5883 53.3723L74.073 54.2347L75.6254 50.9575L74.092 33.9197C74.0874 33.6615 74.0718 33.2554 74.0453 32.6099L73.9747 30.8897L74.2773 30.5752C74.9357 29.8907 75.235 29.1653 75.4697 27.6847C75.5655 27.0798 75.5674 26.9392 75.4793 26.9415C75.4575 26.942 75.1983 27.1132 74.9033 27.3217C74.0803 27.9037 73.9006 28.0172 73.7977 28.0199C73.735 28.0215 73.5371 27.8774 73.216 27.5964C72.6958 27.1411 72.6697 27.1267 71.7074 26.7677C71.2197 26.5857 71.0295 26.5357 70.7123 26.506C70.4407 26.4806 70.3063 26.4824 70.2752 26.5119C70.2255 26.4636 69.9776 26.4019 69.6772 26.3271L69.6771 26.3271C69.4606 26.2732 69.2169 26.2126 69.0005 26.1453C68.6161 26.0257 68.2823 25.9116 68.2587 25.8917C68.1856 25.8301 68.2892 25.7743 68.5651 25.7267C68.9268 25.6642 68.9937 25.5442 68.8056 25.2954C68.7098 25.1687 68.6047 24.8152 68.6541 24.786C68.677 24.7725 68.8424 24.8909 69.0219 25.0491C69.4943 25.4657 69.5914 25.4897 70.3749 25.3836C71.1928 25.2729 71.3658 25.236 71.4245 25.1599C71.5015 25.0599 71.5788 24.3866 71.5274 24.2634C71.4997 24.1971 71.4104 24.1281 71.2832 24.0748C70.808 23.8755 68.1428 22.9118 68.072 22.9136C68.0292 22.9147 67.9625 22.9488 67.9237 22.9894C67.8431 23.0739 66.8865 24.3529 66.3556 25.0861C66.2499 25.2322 66.0436 25.5114 65.897 25.7067C65.6137 26.0843 65.5891 26.1714 65.7097 26.3701C65.7882 26.4995 66.4797 27.377 67.7603 28.9721C68.4252 29.8004 68.8578 30.3519 68.9457 30.4833C68.9635 30.5099 68.9514 30.6983 68.9188 30.902C68.8863 31.1057 68.8271 31.5329 68.7873 31.8514C68.7475 32.1699 68.6723 32.7361 68.6201 33.1096ZM73.3449 27.4509C73.0137 27.1484 72.949 27.0696 72.9795 27.0063C72.9999 26.964 73.193 26.7493 73.4085 26.5292C73.6241 26.3091 73.8822 26.0394 73.9822 25.9297C74.0821 25.8201 74.1915 25.7042 74.2252 25.6722C74.259 25.6402 74.4822 25.4054 74.7212 25.1505C74.9602 24.8955 75.181 24.6774 75.212 24.6658C75.321 24.625 76.3682 25.6748 76.3722 25.8289C76.3736 25.8842 76.235 26.0012 75.3573 26.6859C74.98 26.9802 74.5032 27.3552 74.2977 27.519C74.0923 27.6829 73.8845 27.8173 73.8358 27.8178C73.7824 27.8183 73.5881 27.6731 73.3449 27.4509ZM71.8609 26.6526C71.5178 26.5195 71.227 26.402 71.2147 26.3916C71.1526 26.3385 71.3699 26.0335 72.3417 24.809C73.5395 23.2997 73.5697 23.2656 73.6654 23.3118C73.8098 23.3815 74.963 24.3638 74.9644 24.4183C74.9667 24.5072 74.9208 24.5591 73.3719 26.2197C73.1208 26.489 72.8788 26.7505 72.834 26.8009C72.7081 26.9427 72.5444 26.9178 71.8609 26.6526ZM69.9414 26.0445C69.1917 25.8126 69.0954 25.7678 69.1536 25.6781C69.1827 25.6333 69.2351 25.6309 69.4451 25.6645C69.7242 25.7092 69.9742 25.6851 70.5702 25.5561C71.3804 25.3806 71.4416 25.3906 71.3005 25.6758C71.2107 25.8571 70.8074 26.267 70.7196 26.266C70.684 26.2656 70.3338 26.166 69.9414 26.0445ZM71.7182 24.5952C71.7305 24.3144 71.7206 24.115 71.6924 24.0721C71.6673 24.0341 71.418 23.9086 71.1383 23.7934C70.8409 23.6709 70.6236 23.5572 70.6149 23.5195C70.6005 23.4576 71.5897 21.9974 71.6883 21.935C71.8379 21.8404 71.9533 21.9076 72.6508 22.4951L73.3597 23.0921L73.2926 23.2066C73.2557 23.2696 72.9858 23.6132 72.6928 23.9701C72.3999 24.327 72.084 24.7151 71.9909 24.8324C71.729 25.1626 71.6949 25.1328 71.7182 24.5952ZM70.1602 23.3851C69.8884 23.3106 68.5242 22.8057 68.4972 22.7696L68.4966 22.7688C68.486 22.7546 68.4776 22.7432 68.4737 22.7305C68.4586 22.6807 68.5139 22.6096 68.7855 22.26L68.7896 22.2547C68.9704 22.0221 69.2526 21.6581 69.4167 21.4459C69.7882 20.9653 69.9134 20.8359 70.0091 20.8334C70.0975 20.8312 70.505 21.0786 71.0299 21.453C71.3405 21.6746 71.3993 21.7343 71.3783 21.8065C71.3453 21.9199 70.3359 23.3645 70.2743 23.3865C70.2483 23.3958 70.1969 23.3952 70.1602 23.3851ZM27.1947 27.4509C27.5258 27.1484 27.5906 27.0696 27.5601 27.0063C27.5397 26.964 27.3466 26.7493 27.1311 26.5292C26.9155 26.3091 26.6574 26.0394 26.5574 25.9297C26.4575 25.8201 26.3481 25.7042 26.3143 25.6722C26.2806 25.6403 26.0574 25.4055 25.8184 25.1505C25.5794 24.8955 25.3585 24.6774 25.3276 24.6658C25.2186 24.625 24.1714 25.6748 24.1674 25.8289C24.1659 25.8842 24.3045 26.0012 25.1822 26.6859C25.5596 26.9803 26.0364 27.3552 26.2418 27.519C26.4472 27.6829 26.6551 27.8174 26.7037 27.8178C26.7572 27.8183 26.9514 27.6732 27.1947 27.4509ZM28.6786 26.6527C29.0218 26.5195 29.3126 26.402 29.3248 26.3916C29.3869 26.3386 29.1697 26.0335 28.1979 24.809C27.0001 23.2997 26.9699 23.2656 26.8742 23.3118C26.7298 23.3815 25.5766 24.3638 25.5752 24.4184C25.5729 24.5072 25.6188 24.5591 27.1676 26.2198C27.4187 26.489 27.6608 26.7505 27.7055 26.8009C27.8314 26.9428 27.9952 26.9178 28.6786 26.6527ZM30.5981 26.0446C31.3479 25.8126 31.4442 25.7678 31.3859 25.6781C31.3568 25.6334 31.3044 25.6309 31.0944 25.6645C30.8154 25.7093 30.5653 25.6851 29.9694 25.5561C29.1592 25.3806 29.098 25.3906 29.2391 25.6758C29.3288 25.8572 29.7322 26.267 29.8199 26.2661C29.8555 26.2657 30.2057 26.166 30.5981 26.0446ZM28.8213 24.5952C28.8091 24.3144 28.819 24.115 28.8472 24.0722C28.8722 24.0341 29.1216 23.9086 29.4013 23.7934C29.6987 23.6709 29.916 23.5572 29.9247 23.5195C29.939 23.4576 28.9498 21.9974 28.8513 21.9351C28.7017 21.8404 28.5863 21.9076 27.8887 22.4951L27.1798 23.0922L27.247 23.2067C27.2839 23.2696 27.5538 23.6132 27.8467 23.9701C28.1397 24.327 28.4555 24.7151 28.5486 24.8324C28.8105 25.1626 28.8447 25.1328 28.8213 24.5952ZM30.3794 23.3851C30.6512 23.3106 32.0154 22.8057 32.0423 22.7696L32.0429 22.7688C32.0536 22.7546 32.062 22.7433 32.0659 22.7305C32.081 22.6808 32.0257 22.6096 31.7541 22.2601L31.7499 22.2548C31.5691 22.0221 31.287 21.6581 31.1229 21.4459C30.7513 20.9653 30.6262 20.8359 30.5304 20.8335C30.4421 20.8312 30.0345 21.0786 29.5097 21.4531C29.1991 21.6746 29.1403 21.7343 29.1613 21.8065C29.1943 21.9199 30.2036 23.3645 30.2653 23.3866C30.2913 23.3959 30.3426 23.3952 30.3794 23.3851Z" fill="#100D0E"/>
</svg>
